<svg width="24" height="25" viewBox="0 0 24 25" fill="none" xmlns="http://www.w3.org/2000/svg">
<g clip-path="url(#clip0_228_84)">
<mask id="mask0_228_84" style="mask-type:luminance" maskUnits="userSpaceOnUse" x="0" y="0" width="24" height="25">
<path d="M24 0.5H0V24.5H24V0.5Z" fill="white"/>
</mask>
<g mask="url(#mask0_228_84)">
<path d="M17.3333 0.5H6.66668C2.99067 0.5 0 3.49067 0 7.16668V17.8333C0 21.5093 2.99067 24.5 6.66668 24.5H17.3333C21.0093 24.5 24 21.5093 24 17.8333V7.16668C24 3.49067 21.0093 0.5 17.3333 0.5ZM21.3333 17.8333C21.3333 20.0387 19.5387 21.8333 17.3333 21.8333H6.66668C4.46133 21.8333 2.66668 20.0387 2.66668 17.8333V7.16668C2.66668 4.96133 4.46133 3.16668 6.66668 3.16668H17.3333C19.5387 3.16668 21.3333 4.96133 21.3333 7.16668V17.8333Z" fill="url(#paint0_linear_228_84)"/>
<path d="M12 5.83337C8.32405 5.83337 5.33337 8.82402 5.33337 12.5C5.33337 16.176 8.32405 19.1667 12 19.1667C15.676 19.1667 18.6667 16.176 18.6667 12.5C18.6667 8.82402 15.676 5.83337 12 5.83337ZM12 16.5C9.79472 16.5 8.00005 14.7054 8.00005 12.5C8.00005 10.2947 9.79472 8.50002 12 8.50002C14.2054 8.50002 16 10.2947 16 12.5C16 14.7054 14.2054 16.5 12 16.5Z" fill="url(#paint1_linear_228_84)"/>
<path d="M18.6667 7.16668C19.4031 7.16668 20 6.56973 20 5.83333C20 5.09695 19.4031 4.5 18.6667 4.5C17.9304 4.5 17.3334 5.09695 17.3334 5.83333C17.3334 6.56973 17.9304 7.16668 18.6667 7.16668Z" fill="url(#paint2_linear_228_84)"/>
</g>
</g>
<defs>
<linearGradient id="paint0_linear_228_84" x1="12" y1="0.5" x2="12" y2="24.5" gradientUnits="userSpaceOnUse">
<stop stop-color="#3EE4EB"/>
<stop offset="1" stop-color="#3EA2AD"/>
</linearGradient>
<linearGradient id="paint1_linear_228_84" x1="12" y1="5.83337" x2="12" y2="19.1667" gradientUnits="userSpaceOnUse">
<stop stop-color="#3EE4EB"/>
<stop offset="1" stop-color="#3EA2AD"/>
</linearGradient>
<linearGradient id="paint2_linear_228_84" x1="18.6667" y1="4.5" x2="18.6667" y2="7.16668" gradientUnits="userSpaceOnUse">
<stop stop-color="#3EE4EB"/>
<stop offset="1" stop-color="#3EA2AD"/>
</linearGradient>
<clipPath id="clip0_228_84">
<rect width="24" height="24" fill="white" transform="translate(0 0.5)"/>
</clipPath>
</defs>
</svg>
