<svg width="24" height="23" viewBox="0 0 24 23" fill="none" xmlns="http://www.w3.org/2000/svg">
<g clip-path="url(#clip0_228_107)">
<mask id="mask0_228_107" style="mask-type:luminance" maskUnits="userSpaceOnUse" x="0" y="0" width="24" height="23">
<path d="M24 0.625H0V22.2289H24V0.625Z" fill="white"/>
</mask>
<g mask="url(#mask0_228_107)">
<path d="M23.3414 1.07671C22.7593 0.578603 21.8903 0.486183 21.0189 0.830657C20.4788 1.0431 12.0158 4.60427 4.1265 7.9254L1.52073 9.02242C0.51131 9.43172 0 10.0955 0 10.9921C0 11.6198 0.266457 12.4732 1.53393 12.9749L5.93528 14.7357C6.31577 15.8771 7.19915 18.5273 7.4212 19.2318C7.55322 19.6495 7.8869 20.7022 8.72948 20.9482C8.90232 21.007 9.08235 21.037 9.266 21.037C9.79772 21.037 10.1806 20.7898 10.3679 20.6458L13.1632 18.2812L16.5612 21.4223C16.692 21.5555 17.3834 22.2289 18.3136 22.2289C19.4742 22.2289 20.3552 21.2627 20.5389 20.3277C20.6385 19.8152 23.914 3.3692 23.914 3.3716C24.208 2.05252 23.6811 1.36837 23.3414 1.07671ZM18.1995 19.6675L13.234 15.0753L9.59727 18.154C9.16638 16.8253 8.03572 13.4466 8.03572 13.4466L7.8605 12.9197L3.03425 10.9896L5.0591 10.1387C10.219 7.9662 19.4094 4.09777 21.493 3.23117C21.0406 5.49967 18.574 17.8827 18.1995 19.6675Z" fill="url(#paint0_linear_228_107)"/>
<path d="M17.7602 6.62549C17.6102 6.62549 17.4073 6.76831 17.2993 6.83551C15.7534 7.79934 8.00211 12.2103 5.87646 13.4177C6.47539 13.6578 6.89786 13.827 6.89786 13.827C6.89786 13.827 8.27936 17.9619 8.56624 18.8681C8.85309 19.7755 9.08354 19.7971 9.08354 19.7971C9.14717 19.8247 9.20957 19.8355 9.26719 19.8355C9.31399 19.8355 9.34642 19.8187 9.38602 19.8079L10.7987 14.2771C10.7987 14.2771 17.2357 7.76211 17.6234 7.38284C17.9355 7.07916 18.0003 6.97236 18.0003 6.86674C18.0003 6.72629 17.9271 6.62549 17.7602 6.62549Z" fill="url(#paint1_linear_228_107)"/>
</g>
</g>
<defs>
<linearGradient id="paint0_linear_228_107" x1="12" y1="0.625" x2="12" y2="22.2289" gradientUnits="userSpaceOnUse">
<stop stop-color="#3EE4EB"/>
<stop offset="1" stop-color="#3EA2AD"/>
</linearGradient>
<linearGradient id="paint1_linear_228_107" x1="11.9384" y1="6.62549" x2="11.9384" y2="19.8355" gradientUnits="userSpaceOnUse">
<stop stop-color="#3EE4EB"/>
<stop offset="1" stop-color="#3EA2AD"/>
</linearGradient>
<clipPath id="clip0_228_107">
<rect width="24" height="21.75" fill="white" transform="translate(0 0.625)"/>
</clipPath>
</defs>
</svg>
