<svg width="96" height="87" viewBox="0 0 96 87" fill="none" xmlns="http://www.w3.org/2000/svg">
<g clip-path="url(#clip0_228_103)">
<path d="M93.3658 1.80684C91.0373 -0.185588 87.5613 -0.555269 84.0758 0.822629C81.9153 1.67241 48.0632 15.9171 16.506 29.2016L6.08291 33.5897C2.04524 35.2269 0 37.8818 0 41.4682C0 43.9792 1.06583 47.3927 6.13573 49.3995L23.7411 56.4427C25.2631 61.0084 28.7966 71.6091 29.6848 74.4273C30.2129 76.0981 31.5476 80.3086 34.9179 81.2928C35.6093 81.5281 36.3294 81.6481 37.064 81.6481C39.1909 81.6481 40.7224 80.6591 41.4714 80.083L52.653 70.6249L66.2447 83.1892C66.768 83.7222 69.5334 86.4155 73.2542 86.4155C77.8968 86.4155 81.4208 82.5507 82.1554 78.8107C82.5538 76.7607 95.6559 10.9768 95.6559 10.9864C96.8321 5.71009 94.7245 2.97349 93.3658 1.80684ZM72.7981 76.1701L52.9362 57.8014L38.3891 70.116C36.6655 64.8013 32.1429 51.2863 32.1429 51.2863L31.442 49.1787L12.137 41.4586L20.2364 38.0547C40.876 29.3648 77.6376 13.8911 85.9722 10.4247C84.1622 19.4987 74.2961 69.031 72.7981 76.1701Z" fill="black"/>
<path d="M71.0409 24.002C70.4408 24.002 69.6294 24.5733 69.1973 24.8421C63.0136 28.6974 32.0085 46.3412 23.5059 51.171C25.9016 52.1312 27.5915 52.8082 27.5915 52.8082C27.5915 52.8082 33.1175 69.3478 34.265 72.9725C35.4124 76.6021 36.3342 76.6885 36.3342 76.6885C36.5887 76.799 36.8383 76.8422 37.0688 76.8422C37.256 76.8422 37.3857 76.775 37.5441 76.7318L43.1949 54.6086C43.1949 54.6086 68.9429 28.5485 70.4936 27.0314C71.7419 25.8167 72.0011 25.3895 72.0011 24.967C72.0011 24.4052 71.7083 24.002 71.0409 24.002Z" fill="black"/>
</g>
<defs>
<clipPath id="clip0_228_103">
<rect width="96" height="86.4155" fill="white"/>
</clipPath>
</defs>
</svg>
