<svg width="24" height="15" viewBox="0 0 24 15" fill="none" xmlns="http://www.w3.org/2000/svg">
<g clip-path="url(#clip0_228_134)">
<mask id="mask0_228_134" style="mask-type:luminance" maskUnits="userSpaceOnUse" x="0" y="0" width="24" height="15">
<path d="M24 0H0V14.9975H24V0Z" fill="white"/>
</mask>
<g mask="url(#mask0_228_134)">
<path d="M23.9358 1.04183C23.9818 0.889853 24.0038 0.749875 23.9978 0.625895C23.9818 0.263955 23.7338 0 23.1479 0H20.5301C19.8702 0 19.5642 0.399933 19.3862 0.801868C19.3862 0.801868 17.7544 4.1593 15.8726 6.37493C15.2626 7.01483 14.9526 6.99883 14.6227 6.99883C14.4467 6.99883 13.9987 6.78488 13.9987 6.19698V1.01383C13.9987 0.319947 13.8267 0 13.2668 0H8.61922C8.21125 0 7.99927 0.319948 7.99927 0.641893C7.99927 1.30778 8.8972 1.46776 8.9992 3.33745V6.95885C8.9992 7.8387 8.8472 7.99868 8.51722 7.99868C7.6273 7.99868 5.87547 4.99918 4.70157 1.06782C4.4476 0.293952 4.19362 0 3.53367 0H0.88992C0.127989 0 0 0.373938 0 0.77387C0 1.49575 0.599947 5.3911 3.87565 9.87235C6.24942 13.1238 9.37915 14.9975 12.1489 14.9975C13.8267 14.9975 13.9987 14.5696 13.9987 13.9037V10.9322C13.9987 10.1303 14.1827 9.99833 14.7167 9.99833C15.0986 9.99833 15.8746 10.2483 17.3744 11.998C19.1043 14.0157 19.4182 14.9975 20.4101 14.9975H23.0279C23.6359 14.9975 23.9858 14.7436 23.9998 14.2476C24.0018 14.1217 23.9858 13.9797 23.9438 13.8237C23.7498 13.2478 22.8599 11.84 21.75 10.4983C21.1341 9.75438 20.5281 9.0185 20.2502 8.62058C20.0602 8.3586 19.9902 8.17463 19.9982 7.99868C20.0062 7.8147 20.1022 7.63673 20.2482 7.39078C20.2222 7.39078 23.6059 2.64155 23.9358 1.04183Z" fill="url(#paint0_linear_228_134)"/>
</g>
</g>
<defs>
<linearGradient id="paint0_linear_228_134" x1="12" y1="0" x2="12" y2="14.9975" gradientUnits="userSpaceOnUse">
<stop stop-color="#3EE4EB"/>
<stop offset="1" stop-color="#3EA2AD"/>
</linearGradient>
<clipPath id="clip0_228_134">
<rect width="24" height="15" fill="white"/>
</clipPath>
</defs>
</svg>
