<svg width="96" height="96" viewBox="0 0 96 96" fill="none" xmlns="http://www.w3.org/2000/svg">
<g clip-path="url(#clip0_227_64)">
<path d="M69.3333 0H26.6667C11.9627 0 0 11.9627 0 26.6667V69.3333C0 84.0373 11.9627 96 26.6667 96H69.3333C84.0373 96 96 84.0373 96 69.3333V26.6667C96 11.9627 84.0373 0 69.3333 0ZM85.3333 69.3333C85.3333 78.1547 78.1547 85.3333 69.3333 85.3333H26.6667C17.8453 85.3333 10.6667 78.1547 10.6667 69.3333V26.6667C10.6667 17.8453 17.8453 10.6667 26.6667 10.6667H69.3333C78.1547 10.6667 85.3333 17.8453 85.3333 26.6667V69.3333Z" fill="black"/>
<path d="M48 21.3334C33.296 21.3334 21.3333 33.296 21.3333 48C21.3333 62.704 33.296 74.6667 48 74.6667C62.704 74.6667 74.6667 62.704 74.6667 48C74.6667 33.296 62.704 21.3334 48 21.3334ZM48 64C39.1787 64 32 56.8214 32 48C32 39.1787 39.1787 32 48 32C56.8213 32 64 39.1787 64 48C64 56.8214 56.8213 64 48 64Z" fill="black"/>
<path d="M74.6667 26.6667C77.6122 26.6667 80 24.2789 80 21.3333C80 18.3878 77.6122 16 74.6667 16C71.7212 16 69.3333 18.3878 69.3333 21.3333C69.3333 24.2789 71.7212 26.6667 74.6667 26.6667Z" fill="black"/>
</g>
<defs>
<clipPath id="clip0_227_64">
<rect width="96" height="96" fill="white"/>
</clipPath>
</defs>
</svg>
