<svg width="96" height="60" viewBox="0 0 96 60" fill="none" xmlns="http://www.w3.org/2000/svg">
<g clip-path="url(#clip0_228_131)">
<path d="M95.7434 4.1673C95.9273 3.55941 96.0153 2.9995 95.9913 2.50358C95.9273 1.05582 94.9354 0 92.5917 0H82.1206C79.4808 0 78.2569 1.59973 77.545 3.20747C77.545 3.20747 71.0176 16.6372 63.4903 25.4997C61.0505 28.0593 59.8106 27.9953 58.4907 27.9953C57.7868 27.9953 55.9949 27.1395 55.9949 24.7879V4.05532C55.9949 1.27979 55.307 0 53.0672 0H34.4769C32.845 0 31.9971 1.27979 31.9971 2.56757C31.9971 5.23113 35.5888 5.87102 35.9968 13.3498V27.8354C35.9968 31.3548 35.3888 31.9947 34.0689 31.9947C30.5092 31.9947 23.5019 19.9967 18.8063 4.27129C17.7904 1.17581 16.7745 0 14.1347 0H3.55968C0.511955 0 0 1.49575 0 3.09548C0 5.983 2.39979 21.5644 15.5026 39.4894C24.9977 52.4953 37.5166 59.99 48.5956 59.99C55.307 59.99 55.9949 58.2783 55.9949 55.6147V43.7287C55.9949 40.5212 56.7309 39.9933 58.8667 39.9933C60.3946 39.9933 63.4983 40.9932 69.4977 47.992C76.4171 56.0627 77.673 59.99 81.6406 59.99H92.1117C94.5435 59.99 95.9433 58.9742 95.9993 56.9905C96.0073 56.4866 95.9433 55.9187 95.7754 55.2948C94.9994 52.9912 91.4397 47.3601 87.0001 41.993C84.5364 39.0175 82.1126 36.074 81.0007 34.4823C80.2408 33.4344 79.9608 32.6985 79.9928 31.9947C80.0248 31.2588 80.4087 30.5469 80.9927 29.5631C80.8887 29.5631 94.4235 10.5662 95.7434 4.1673Z" fill="black"/>
</g>
<defs>
<clipPath id="clip0_228_131">
<rect width="96" height="59.99" fill="white"/>
</clipPath>
</defs>
</svg>
